<svg width="113" height="119" viewBox="0 0 113 119" fill="none" xmlns="http://www.w3.org/2000/svg">
<path d="M105 59.5506V81.0538C105 107.711 86.1882 118.664 63.2139 105.295L44.7223 94.5034L26.2308 83.7115C3.25641 70.3425 3.25641 48.5172 26.2308 35.1482L44.7223 24.3563L63.2139 13.5645C86.1882 0.437083 105 11.3095 105 38.0475V59.5506Z" stroke="white" stroke-width="15" stroke-miterlimit="10" stroke-linecap="round" stroke-linejoin="round"/>
<path d="M8.27738 59.4485L8.39311 37.9457C8.53658 11.2886 27.407 0.437084 50.3091 13.9295L68.7423 24.8208L87.1755 35.712C110.078 49.2045 109.96 71.0294 86.9141 84.2746L68.3648 94.9668L49.8154 105.659C26.7707 118.663 8.01774 107.689 8.16164 80.9514L8.27738 59.4485Z" stroke="#704DB9" stroke-width="15" stroke-miterlimit="10" stroke-linecap="round" stroke-linejoin="round"/>
</svg>
