<svg width="112" height="119" viewBox="0 0 112 119" fill="none" xmlns="http://www.w3.org/2000/svg">
<path d="M104 59.5506V81.0538C104 107.711 85.1882 118.664 62.2139 105.295L43.7223 94.5034L25.2308 83.7115C2.25641 70.3425 2.25641 48.5172 25.2308 35.1482L43.7223 24.3563L62.2139 13.5645C85.1882 0.437083 104 11.3095 104 38.0475V59.5506Z" stroke="#E7E7E7" stroke-width="15" stroke-miterlimit="10" stroke-linecap="round" stroke-linejoin="round"/>
<path d="M8.27738 59.4485L8.39311 37.9457C8.53658 11.2886 27.407 0.437084 50.3091 13.9295L68.7423 24.8208L87.1755 35.712C110.078 49.2045 109.96 71.0294 86.9141 84.2746L68.3648 94.9668L49.8154 105.659C26.7707 118.663 8.01774 107.689 8.16164 80.9514L8.27738 59.4485Z" stroke="#704DB9" stroke-width="15" stroke-miterlimit="10" stroke-linecap="round" stroke-linejoin="round"/>
</svg>
