<svg width="107" height="115" viewBox="0 0 107 115" fill="none" xmlns="http://www.w3.org/2000/svg">
<path d="M102 57.5506V79.0538C102 105.711 83.1882 116.664 60.2139 103.295L41.7223 92.5034L23.2308 81.7115C0.256411 68.3425 0.256411 46.5172 23.2308 33.1482L41.7223 22.3563L60.2139 11.5645C83.1882 -1.56292 102 9.30947 102 36.0475V57.5506Z" stroke="#E7E7E7" stroke-width="10" stroke-miterlimit="10" stroke-linecap="round" stroke-linejoin="round"/>
<path d="M6.00101 57.191L6.11674 35.6881C6.26022 9.03103 25.1307 -1.82048 48.0327 11.672L66.4659 22.5632L84.8991 33.4544C107.801 46.9469 107.684 68.7719 84.6378 82.017L66.0884 92.7092L47.539 103.401C24.4943 116.405 5.74137 105.431 5.88528 78.6938L6.00101 57.191Z" stroke="#704DB9" stroke-width="10" stroke-miterlimit="10" stroke-linecap="round" stroke-linejoin="round"/>
</svg>
